<?xml version="1.0" encoding="utf-8"?>
<!-- Generator: Adobe Illustrator 23.0.2, SVG Export Plug-In . SVG Version: 6.00 Build 0)  -->
<svg version="1.1" id="Layer_1" xmlns="http://www.w3.org/2000/svg" xmlns:xlink="http://www.w3.org/1999/xlink" x="0px" y="0px"
	 viewBox="0 0 72 72" style="enable-background:new 0 0 72 72;" xml:space="preserve">
<style type="text/css">
	.st0{fill:#29ABE2;}
	.st1{fill:none;stroke:#FFFFFF;stroke-width:0.5;stroke-miterlimit:10;}
	.st2{fill:none;stroke:#FFFFFF;stroke-width:0.25;stroke-miterlimit:10;}
</style>
<path class="st0" d="M68.41,45.56c-6.25,12.8-24.06,8.11-31.02,8.68c-5.6,0.46-14.04,1.42-17.54,5.82c-1.84,2.32,0.76,3.71,0.83,5.2
	c0.13,2.77-5.45,3.34-11.04,1.02c-10.59-4.4-9.3-14.5-7.44-18.73c1.13-2.54,4.82-6.9,5.9-9.46c3.56-8.57-7.14-27.14,6.89-30.91
	c8.54-2.29,10.3,7.25,20.34,3.93C64.77,1.37,76.74,28.49,68.41,45.56z"/>
<path class="st1" d="M18.81,16.61c3.11,0.16,34.51,0,34.51,0l-1.31,22.4H19.79L18.81,16.61z"/>
<line class="st1" x1="22.41" y1="35.74" x2="49.56" y2="35.74"/>
<rect x="34.67" y="40.98" class="st1" width="2.45" height="4.42"/>
<rect x="33.53" y="46.37" class="st1" width="4.74" height="4.91"/>
<path class="st1" d="M11.38,48.84c0.18,0.09,49.25,0,49.25,0"/>
<path class="st2" d="M36.22,22.7l1.05-0.98c0,0,1.13,0.6,1.43,1.81l1.43,1.58l-0.45,0.53l-1.58-1.51
	C38.1,24.13,36.89,23.91,36.22,22.7z"/>
<path class="st2" d="M39,26.77l2.26-2.26l0.68,0.6v0.38c0,0-0.23,0.98,1.13,1.28l1.88,1.73v0.45c0,0-0.68,1.13-1.43,1.51h-0.53
	l-1.66-1.81c0,0-0.38-1.58-1.36-1.28H39.6L39,26.77z"/>
<path class="st2" d="M37.42,29.1l1.66-1.81l0.45,0.45h0.45l0.3-0.15l0.6,0.75v0.3L39,30.38h-0.6c0,0-0.83-0.38-0.98-0.83V29.1z"/>
<path class="st2" d="M41.86,24.51l0.23-0.3l0.08-1.43c0,0,0.83-0.98,2.26-1.21l0.23,0.3l-1.13,1.28l1.13,1.21l1.36-1.21
	c0,0,0.23,0.15,0.23,0.6c0,0-0.23,1.43-1.05,1.96l-1.58,0.15l-0.45,0.6c0,0-0.98-0.23-1.05-0.9l0.23-0.6L41.86,24.51z"/>
<path class="st2" d="M29.99,23.02l0.33-0.77c0.04-0.1,0-0.22-0.1-0.26c-0.1-0.04-0.22,0-0.26,0.1l-0.33,0.77
	c-0.21-0.07-0.43-0.11-0.67-0.11s-0.46,0.04-0.67,0.11l-0.33-0.77c-0.04-0.1-0.16-0.15-0.26-0.1c-0.1,0.04-0.15,0.16-0.1,0.26
	l0.33,0.77c-0.68,0.37-1.14,1.08-1.14,1.9c0,0.11,0.09,0.2,0.2,0.2h3.94c0.11,0,0.2-0.09,0.2-0.2
	C31.13,24.1,30.67,23.38,29.99,23.02z M28.17,24.33c-0.11,0-0.2-0.09-0.2-0.2s0.09-0.2,0.2-0.2c0.11,0,0.2,0.09,0.2,0.2
	S28.28,24.33,28.17,24.33z M29.75,24.33c-0.11,0-0.2-0.09-0.2-0.2s0.09-0.2,0.2-0.2s0.2,0.09,0.2,0.2S29.86,24.33,29.75,24.33z"/>
<path class="st2" d="M30.93,25.71h-3.94c-0.11,0-0.2,0.09-0.2,0.21v3.39c0,0.51,0.34,0.94,0.79,1.04v1.08
	c0,0.35,0.26,0.64,0.59,0.64c0.33,0,0.59-0.29,0.59-0.64v-1.06h0.39v1.06c0,0.35,0.26,0.64,0.59,0.64s0.59-0.29,0.59-0.64v-1.08
	c0.45-0.1,0.79-0.53,0.79-1.04v-3.39C31.13,25.81,31.04,25.71,30.93,25.71z"/>
<path class="st2" d="M31.97,25.51c-0.4,0-0.73,0.26-0.73,0.59v1.97c0,0.33,0.33,0.59,0.73,0.59c0.4,0,0.73-0.26,0.73-0.59V26.1
	C32.7,25.78,32.37,25.51,31.97,25.51z"/>
<path class="st2" d="M25.85,25.51c-0.35,0-0.63,0.26-0.63,0.59v1.97c0,0.33,0.28,0.59,0.63,0.59s0.63-0.26,0.63-0.59V26.1
	C26.48,25.78,26.2,25.51,25.85,25.51z"/>
</svg>
